<svg width="35" height="39" viewBox="0 0 35 39" fill="none" xmlns="http://www.w3.org/2000/svg">
<path d="M29.6119 29.1201C30.3672 28.924 30.9591 28.4175 31.6308 28.0652C32.0484 27.8456 32.0393 27.4679 32.0393 27.0776C32.0375 21.9359 32.0321 16.7924 32.0466 11.6507C32.0466 11.1351 31.8705 10.8374 31.4184 10.5796C26.9285 8.01598 22.4459 5.43606 17.9742 2.83799C17.5439 2.58926 17.2479 2.63465 16.8431 2.86886C12.3986 5.44514 7.94861 8.00872 3.48414 10.5505C2.99576 10.8283 2.80694 11.146 2.80875 11.7016C2.82509 16.8432 2.82509 21.9867 2.80875 27.1284C2.80875 27.6477 2.97215 27.9708 3.43331 28.2032C4.02155 28.4973 4.588 28.8405 5.16354 29.1618C4.93659 29.8699 4.70965 30.5798 4.48089 31.2879C2.32581 31.1826 0.346849 29.209 0.345034 27.1357C0.339587 21.9196 0.352296 16.7034 0.335956 11.4873C0.332325 10.1783 0.862469 9.23785 1.99538 8.58788C6.48164 6.01341 10.9661 3.43713 15.4342 0.83361C16.8013 0.0365775 18.0903 0.0293152 19.4593 0.828163C23.8965 3.41897 28.3537 5.97165 32.7982 8.54975C33.9366 9.21062 34.5466 10.1983 34.5448 11.54C34.5412 16.7906 34.5448 22.0412 34.543 27.2918C34.543 28.5809 34.0038 29.5322 32.8636 30.1913C29.2869 32.2574 25.7339 34.3652 22.1608 36.4404C21.1423 37.0323 20.0857 37.5588 19.0562 38.1307C17.9978 38.719 16.9375 38.7607 15.8844 38.1525C14.9894 37.6351 14.009 37.252 13.241 36.5258C13.5605 35.8359 13.5859 35.0225 14.1252 34.4252C14.9984 34.9045 15.879 35.3729 16.7414 35.8703C17.1572 36.11 17.5275 36.2316 17.9869 35.943C18.9182 35.3547 19.875 34.8082 20.821 34.2436C22.0701 33.5301 23.3192 32.8184 24.5701 32.1049C25.0694 31.8434 25.5977 31.6274 26.0117 31.2207C27.2698 30.6197 28.5008 29.9734 29.6119 29.1201Z" fill="#3D3D3D"/>
</svg>