<svg width="26" height="25" viewBox="0 0 26 25" fill="none" xmlns="http://www.w3.org/2000/svg">
<path d="M0.682271 13.335H1.07497C6.15944 13.335 11.2439 13.335 16.3284 13.335C16.6866 13.335 16.8658 13.1585 16.8658 12.8054C16.8658 12.4334 16.8658 12.0613 16.8658 11.6893C16.8658 11.3448 16.697 11.1717 16.3594 11.17C11.5979 11.17 6.83376 11.17 2.07223 11.17C1.61494 11.17 1.16023 11.17 0.700356 11.17C1.11373 5.41638 5.98376 0.373252 12.2515 0.0942264C19.0463 -0.208052 24.6165 4.93067 25.0195 11.4464C25.4458 18.342 20.3588 23.6047 14.3778 24.3307C7.18254 25.204 1.25582 19.9051 0.679688 13.3324L0.682271 13.335Z" fill="#3D3D3D"/>
</svg>